# xmcd CD database file
#
# Track frame offsets:
#	150
#	27055
#	55277
#	84280
#	111175
#	134032
#	157087
#	183612
#	205022
#	227185
#
# Disc length: 3453 seconds
#
# Revision: 1
# Processed by: cddbd v1.5.2PL0 Copyright (c) Steve Scherf et al.
# Submitted via: CDex 1.70beta2
#
DISCID=870d7b0a
DTITLE=Maggie Bell - The River Sessions
DYEAR=2004
DGENRE=Blues
TTITLE0=Blue Suede Shoes
TTITLE1=Try A Little Tenderness
TTITLE2=As The Years Go Passing By
TTITLE3=Only Women Bleed
TTITLE4=Ain't No Love In The Heart Of The City
TTITLE5=Good Man Monologue
TTITLE6=Trade Winds
TTITLE7=No Mean City
TTITLE8=Every Little Bit Hurts
TTITLE9=That's The Way I Feel
EXTD=YEAR: 2004
EXTT0=
EXTT1=
EXTT2=
EXTT3=
EXTT4=
EXTT5=
EXTT6=
EXTT7=
EXTT8=
EXTT9=
PLAYORDER=
